<?xml version="1.0" standalone="no"?>
<!DOCTYPE svg PUBLIC "-//W3C//DTD SVG 20010904//EN"
 "http://www.w3.org/TR/2001/REC-SVG-20010904/DTD/svg10.dtd">
<svg version="1.0" xmlns="http://www.w3.org/2000/svg"
 width="1024.000000pt" height="1024.000000pt" viewBox="0 0 1024.000000 1024.000000"
 preserveAspectRatio="xMidYMid meet">
<metadata>
Created by potrace 1.11, written by Peter Selinger 2001-2013
</metadata>
<g transform="translate(0.000000,1024.000000) scale(0.100000,-0.100000)"
fill="#000000" stroke="none">
<path d="M15 10158 c4 -40 8 -84 10 -98 4 -38 17 -162 20 -190 1 -14 6 -53 10
-87 4 -34 8 -79 10 -100 5 -63 16 -166 20 -193 3 -24 9 -74 21 -200 2 -30 6
-68 9 -85 2 -16 6 -57 10 -90 3 -33 8 -78 10 -100 3 -22 7 -62 10 -90 2 -27
11 -113 19 -190 9 -77 18 -167 21 -200 9 -100 13 -107 90 -180 40 -38 151
-144 245 -235 95 -91 194 -185 220 -210 67 -64 414 -396 539 -516 58 -56 127
-121 152 -145 26 -24 134 -127 240 -229 237 -227 263 -252 381 -365 52 -49
180 -172 284 -272 104 -99 209 -200 234 -223 25 -23 130 -124 234 -224 226
-216 382 -366 452 -432 150 -143 443 -423 547 -525 l120 -115 -263 -295 c-145
-162 -295 -330 -335 -374 -40 -44 -114 -127 -166 -185 -108 -121 -155 -173
-186 -207 l-22 -25 -263 199 c-145 109 -265 200 -268 203 -3 3 -39 30 -80 60
-41 30 -82 61 -90 67 -8 7 -48 37 -89 67 l-74 55 -26 -28 c-27 -29 -76 -85
-222 -251 -45 -52 -88 -100 -93 -106 -6 -6 -36 -40 -66 -74 -30 -35 -59 -68
-65 -74 -5 -6 -38 -43 -72 -82 l-63 -71 101 -47 c55 -26 164 -78 242 -116 78
-37 167 -79 197 -93 30 -14 136 -64 235 -111 99 -47 202 -96 229 -109 l49 -23
-32 -36 c-20 -23 -50 -43 -79 -52 -27 -10 -69 -36 -100 -65 -48 -45 -52 -50
-42 -75 15 -40 13 -49 -21 -87 -17 -19 -43 -49 -59 -67 -20 -24 -42 -37 -85
-48 -46 -12 -66 -25 -101 -62 -42 -45 -44 -49 -38 -92 4 -39 2 -50 -18 -70
-13 -14 -39 -46 -58 -72 -26 -35 -42 -48 -62 -49 -16 -1 -32 -3 -38 -4 -5 -1
-18 -3 -28 -4 -27 -2 -112 -91 -112 -118 0 -12 4 -33 10 -48 9 -23 4 -31 -55
-88 -57 -55 -72 -65 -123 -75 -47 -10 -66 -20 -100 -55 l-43 -44 11 -45 12
-46 -48 -61 c-37 -48 -53 -61 -76 -62 -25 -1 -55 -4 -76 -8 -4 0 -29 -21 -55
-46 -27 -25 -51 -45 -54 -45 -3 0 -51 35 -107 77 -55 42 -191 145 -301 228
-110 84 -210 157 -221 163 -20 11 -34 -7 -226 -297 l-206 -308 241 -174 c132
-96 245 -177 250 -180 5 -3 -31 -84 -78 -180 -77 -153 -85 -175 -71 -184 15
-9 332 -238 396 -285 14 -11 115 -84 225 -163 110 -79 248 -178 306 -221 l107
-77 175 107 176 107 150 -109 c83 -60 186 -135 228 -167 50 -37 87 -57 104
-57 26 0 70 33 473 360 42 34 74 65 72 69 -3 4 -136 106 -296 227 -232 175
-286 220 -268 223 36 6 108 92 112 135 4 39 10 48 68 111 20 22 46 51 57 64
19 22 44 29 113 30 35 1 102 90 103 137 1 23 13 45 40 76 77 86 86 91 175 90
25 0 60 22 111 70 25 23 26 29 18 72 l-9 47 51 46 c68 64 76 68 139 83 41 9
66 23 98 53 38 38 42 45 42 91 0 45 4 53 38 84 96 86 118 100 171 111 45 10
61 19 95 58 26 30 41 57 42 74 0 33 23 79 38 79 6 0 106 -97 221 -216 116
-120 275 -284 355 -366 l145 -148 319 315 318 316 -158 110 c-88 60 -166 114
-174 119 -8 6 -116 81 -240 166 -124 85 -229 159 -235 165 -7 7 15 34 65 81
41 39 156 148 255 243 99 95 203 194 230 220 28 26 98 93 156 149 58 55 122
116 142 135 l37 35 77 -77 c43 -42 98 -95 123 -118 25 -23 126 -119 224 -213
186 -177 234 -223 381 -365 48 -46 83 -87 78 -91 -8 -7 -100 -71 -253 -174
-41 -28 -77 -53 -80 -56 -3 -3 -39 -28 -80 -56 -72 -49 -114 -78 -302 -207
-49 -34 -88 -63 -88 -67 0 -3 142 -147 316 -319 l315 -312 167 172 c554 572
548 566 571 545 14 -13 21 -31 21 -58 0 -31 8 -47 41 -83 23 -25 54 -48 68
-51 85 -19 100 -27 170 -91 70 -65 73 -70 68 -105 -8 -63 51 -128 133 -148 71
-16 77 -20 142 -80 l55 -51 -8 -46 c-10 -51 -7 -57 53 -104 42 -34 52 -37 117
-38 40 -1 49 -7 107 -63 56 -56 63 -68 65 -106 2 -23 5 -42 8 -42 4 0 20 -21
36 -45 31 -46 29 -46 118 -48 23 -1 45 -18 103 -83 61 -67 74 -87 74 -115 0
-26 10 -45 44 -81 24 -26 54 -51 66 -56 20 -7 -12 -35 -273 -233 -327 -248
-306 -221 -226 -281 19 -14 46 -35 60 -47 13 -12 107 -88 209 -171 205 -166
216 -171 279 -122 19 15 45 34 58 42 12 8 98 71 192 138 l171 124 72 -45 c40
-25 119 -73 175 -106 l102 -62 348 252 c191 139 424 307 517 373 92 67 170
126 173 132 2 7 -32 85 -77 174 -45 89 -80 166 -78 171 2 5 33 31 70 57 242
171 408 297 408 309 0 13 -28 62 -41 73 -3 3 -8 10 -10 15 -2 6 -79 123 -170
260 -91 138 -168 255 -170 262 -4 11 -81 -45 -482 -350 -92 -70 -171 -127
-175 -127 -4 0 -28 20 -52 45 -39 40 -50 45 -102 51 -54 6 -61 10 -96 53 -65
80 -62 73 -48 121 l13 44 -44 44 c-36 35 -55 45 -101 54 -49 10 -66 20 -120
72 -51 49 -62 65 -58 83 4 13 8 33 11 46 4 17 -6 35 -42 75 -48 53 -62 58
-144 61 -19 1 -134 144 -135 169 0 9 3 27 8 40 7 20 0 31 -39 73 -39 40 -58
52 -101 62 -48 11 -61 20 -117 83 -63 70 -64 71 -54 112 9 40 8 42 -34 81 -23
22 -67 50 -97 62 -46 18 -109 69 -110 90 0 3 46 27 103 54 56 26 180 86 276
132 95 45 174 83 176 83 1 0 83 39 181 86 99 48 208 99 243 115 57 26 62 31
50 46 -13 16 -281 324 -304 349 -5 6 -35 39 -65 74 -30 35 -76 86 -101 114
-85 93 -109 124 -109 135 0 9 -669 -488 -708 -526 -7 -7 -17 -13 -20 -13 -4 0
-18 -10 -32 -23 -14 -12 -45 -37 -70 -55 l-45 -33 -40 43 c-47 52 -91 101
-200 223 -44 50 -82 92 -85 95 -3 3 -43 48 -90 100 -47 52 -101 113 -121 135
-72 80 -146 163 -219 245 -41 46 -84 94 -95 105 -11 12 -43 48 -72 81 l-52 60
102 96 c56 53 134 127 172 163 194 185 462 442 565 541 120 115 279 268 365
349 84 80 415 397 470 450 54 52 415 397 471 450 69 65 415 397 529 506 66 64
132 127 146 140 15 13 105 99 200 191 96 92 201 192 234 223 54 51 428 410
461 443 8 7 14 21 15 30 0 9 2 26 4 37 2 11 7 51 10 90 3 38 8 81 10 95 2 14
6 52 9 85 7 72 13 132 22 205 3 30 8 66 9 80 10 108 18 177 20 190 2 8 6 50 9
92 4 42 9 85 11 96 2 10 6 56 10 103 4 46 8 91 10 99 3 18 15 127 30 275 3 33
8 74 10 90 2 17 7 78 11 137 l7 107 -164 -50 c-90 -27 -184 -56 -209 -63 -25
-8 -416 -125 -870 -261 -807 -241 -826 -247 -861 -283 -19 -20 -154 -170 -299
-332 -145 -162 -269 -300 -274 -306 -6 -6 -40 -44 -76 -85 -65 -74 -227 -254
-286 -319 -50 -55 -306 -342 -329 -369 -11 -12 -33 -38 -50 -56 -38 -41 -72
-79 -220 -245 -66 -74 -122 -137 -125 -140 -3 -3 -62 -68 -130 -145 -69 -77
-129 -145 -135 -151 -5 -6 -41 -46 -80 -89 -78 -88 -174 -194 -190 -211 -5 -6
-37 -41 -70 -79 -33 -38 -69 -78 -80 -91 -11 -12 -36 -39 -55 -61 -19 -21 -69
-76 -110 -123 -41 -46 -82 -91 -90 -100 -29 -31 -96 -106 -170 -190 -41 -46
-82 -91 -90 -100 -8 -9 -46 -51 -84 -93 l-69 -78 -29 33 c-53 59 -136 153
-158 178 -12 13 -42 47 -68 75 -26 28 -76 84 -112 125 -36 40 -70 78 -75 84
-6 6 -84 94 -175 196 -91 102 -169 190 -175 196 -20 21 -146 163 -166 185 -11
13 -37 42 -58 64 -20 22 -131 146 -246 275 -115 129 -214 240 -220 246 -15 17
-71 79 -160 179 -44 50 -82 92 -85 95 -3 3 -62 68 -130 145 -69 77 -129 145
-135 151 -5 6 -44 49 -85 95 -41 46 -119 133 -174 194 -54 60 -113 126 -130
145 -17 19 -53 60 -81 90 -66 73 -181 202 -206 231 -11 13 -32 38 -48 54 -15
17 -69 77 -121 135 -51 58 -96 107 -99 110 -3 3 -24 25 -45 50 -64 72 12 44
-671 249 -148 45 -306 92 -350 106 -128 39 -482 145 -585 175 -197 58 -506
150 -519 155 -11 4 -12 -7 -6 -67z"/>
</g>
</svg>
